<?xml version="1.0" encoding="utf-8"?>
<svg width="24px" height="24px" viewBox="0 0 24 24" version="1.1" xmlns:xlink="http://www.w3.org/1999/xlink" xmlns="http://www.w3.org/2000/svg">
  <desc>Created with Lunacy</desc>
  <path d="M6.75 0C6.33525 0 6 0.33525 6 0.75L6 17.9767L3 17.9767C1.3455 17.9767 0 19.3223 0 20.9767L0 23.2267C0 23.6415 0.33525 23.9767 0.75 23.9767L14.25 23.9767C14.6647 23.9767 15 23.6415 15 23.2267L15 20.9767C15 20.1495 15.6727 19.4767 16.5 19.4767C17.3273 19.4767 18 20.1495 18 20.9767C18 22.6312 19.3455 23.9767 21 23.9767C22.6545 23.9767 24 22.6312 24 20.9767L24 0.75C24 0.336 23.6647 0 23.25 0L6.75 0ZM10.5 5.97675L19.5 5.97675L19.5 4.47675L10.5 4.47675L10.5 5.97675ZM19.5 10.4768L10.5 10.4768L10.5 8.97675L19.5 8.97675L19.5 10.4768ZM10.5 14.9768L19.5 14.9768L19.5 13.4768L10.5 13.4768L10.5 14.9768ZM1.5 20.9767C1.5 20.1495 2.17275 19.4767 3 19.4767L13.9028 19.4767C13.6462 19.9185 13.5 20.4307 13.5 20.9767L13.5 22.4767L1.5 22.4767L1.5 20.9767Z" id="Shape" fill="#7540EE" fill-rule="evenodd" stroke="none" />
</svg>